<svg width="40" height="40" viewBox="0 0 40 40" fill="none" xmlns="http://www.w3.org/2000/svg">
<path d="M17.7486 0.138431C8.54861 1.13843 1.14861 8.53843 0.148611 17.5384C-1.05139 27.5384 5.14861 36.1384 13.9486 38.9384V34.3384C13.9486 34.3384 13.1486 34.5384 12.1486 34.5384C9.34861 34.5384 8.14861 32.1384 7.94861 30.7384C7.74861 29.9384 7.34861 29.3384 6.74861 28.7384C6.14861 28.5384 5.94861 28.5384 5.94861 28.3384C5.94861 27.9384 6.54861 27.9384 6.74861 27.9384C7.94861 27.9384 8.94861 29.3384 9.34861 29.9384C10.3486 31.5384 11.5486 31.9384 12.1486 31.9384C12.9486 31.9384 13.5486 31.7384 13.9486 31.5384C14.1486 30.1384 14.7486 28.7384 15.9486 27.9384C11.3486 26.9384 7.94861 24.3384 7.94861 19.9384C7.94861 17.7384 8.94861 15.5384 10.3486 13.9384C10.1486 13.5384 9.94861 12.5384 9.94861 11.1384C9.94861 10.3384 9.94861 9.13843 10.5486 7.93843C10.5486 7.93843 13.3486 7.93843 16.1486 10.5384C17.1486 10.1384 18.5486 9.93843 19.9486 9.93843C21.3486 9.93843 22.7486 10.1384 23.9486 10.5384C26.5486 7.93843 29.5486 7.93843 29.5486 7.93843C29.9486 9.13843 29.9486 10.3384 29.9486 11.1384C29.9486 12.7384 29.7486 13.5384 29.5486 13.9384C30.9486 15.5384 31.9486 17.5384 31.9486 19.9384C31.9486 24.3384 28.5486 26.9384 23.9486 27.9384C25.1486 28.9384 25.9486 30.7384 25.9486 32.5384V39.1384C34.1486 36.5384 39.9486 28.9384 39.9486 20.1384C39.9486 8.13843 29.7486 -1.26157 17.7486 0.138431Z" fill="black"/>
</svg>
